<svg width="25" height="25" viewBox="0 0 25 25" fill="none" xmlns="http://www.w3.org/2000/svg">
<path fill-rule="evenodd" clip-rule="evenodd" d="M12.5 0C5.59375 0 0 5.59375 0 12.5C0 18.0312 3.57812 22.7031 8.54688 24.3594C9.17188 24.4688 9.40625 24.0938 9.40625 23.7656C9.40625 23.4688 9.39062 22.4844 9.39062 21.4375C6.25 22.0156 5.4375 20.6719 5.1875 19.9688C5.04688 19.6094 4.4375 18.5 3.90625 18.2031C3.46875 17.9688 2.84375 17.3906 3.89062 17.375C4.875 17.3594 5.57812 18.2812 5.8125 18.6562C6.9375 20.5469 8.73438 20.0156 9.45312 19.6875C9.5625 18.875 9.89062 18.3281 10.25 18.0156C7.46875 17.7031 4.5625 16.625 4.5625 11.8438C4.5625 10.4844 5.04688 9.35938 5.84375 8.48438C5.71875 8.17188 5.28125 6.89062 5.96875 5.17188C5.96875 5.17188 7.01562 4.84375 9.40625 6.45312C10.4062 6.17188 11.4688 6.03125 12.5313 6.03125C13.5938 6.03125 14.6562 6.17188 15.6563 6.45312C18.0469 4.82812 19.0938 5.17188 19.0938 5.17188C19.7812 6.89062 19.3438 8.17188 19.2188 8.48438C20.0156 9.35938 20.5 10.4688 20.5 11.8438C20.5 16.6406 17.5781 17.7031 14.7969 18.0156C15.25 18.4062 15.6406 19.1562 15.6406 20.3281C15.6406 22 15.625 23.3438 15.625 23.7656C15.625 24.0938 15.8594 24.4844 16.4844 24.3594C21.4219 22.7031 25 18.0156 25 12.5C25 5.59375 19.4062 0 12.5 0Z" fill="#FFD28F"/>
</svg>
