<svg width="25" height="25" viewBox="0 0 25 25" fill="none" xmlns="http://www.w3.org/2000/svg">
<path d="M5.64517 8.22095H0.421295V24.8796H5.64517V8.22095Z" fill="#FFD28F"/>
<path d="M19.7761 7.86002C19.5835 7.83594 19.3789 7.82391 19.1743 7.81187C16.2494 7.69151 14.6004 9.42478 14.0227 10.171C13.8662 10.3757 13.794 10.496 13.794 10.496V8.26926H8.79878V24.9279H13.794H14.0227C14.0227 23.2308 14.0227 21.5456 14.0227 19.8485C14.0227 18.9337 14.0227 18.0189 14.0227 17.1041C14.0227 15.9727 13.9384 14.769 14.5041 13.7339C14.9856 12.8672 15.8522 12.4339 16.8272 12.4339C19.7159 12.4339 19.7761 15.0459 19.7761 15.2866C19.7761 15.2986 19.7761 15.3107 19.7761 15.3107V25.0002H25V14.1311C25 10.4118 23.1103 8.22112 19.7761 7.86002Z" fill="#FFD28F"/>
<path d="M3.03321 6.06645C4.70841 6.06645 6.06644 4.70843 6.06644 3.03323C6.06644 1.35802 4.70841 0 3.03321 0C1.35801 0 0 1.35802 0 3.03323C0 4.70843 1.35801 6.06645 3.03321 6.06645Z" fill="#FFD28F"/>
</svg>
