<svg width="478" height="204" viewBox="0 0 478 204" fill="none" xmlns="http://www.w3.org/2000/svg">
<path d="M35.6769 33.328V40.56H17.0529V52.016H31.3249V59.12H17.0529V78H8.09294V33.328H35.6769ZM46.5744 38.32C44.9958 38.32 43.6731 37.8293 42.6064 36.848C41.5824 35.824 41.0704 34.5653 41.0704 33.072C41.0704 31.5787 41.5824 30.3413 42.6064 29.36C43.6731 28.336 44.9958 27.824 46.5744 27.824C48.1531 27.824 49.4544 28.336 50.4784 29.36C51.5451 30.3413 52.0784 31.5787 52.0784 33.072C52.0784 34.5653 51.5451 35.824 50.4784 36.848C49.4544 37.8293 48.1531 38.32 46.5744 38.32ZM50.9904 42.544V78H42.0304V42.544H50.9904ZM79.4909 42.032C83.7149 42.032 87.1283 43.376 89.7309 46.064C92.3336 48.7093 93.6349 52.4213 93.6349 57.2V78H84.6749V58.416C84.6749 55.6 83.9709 53.4453 82.5629 51.952C81.1549 50.416 79.2349 49.648 76.8029 49.648C74.3283 49.648 72.3656 50.416 70.9149 51.952C69.5069 53.4453 68.8029 55.6 68.8029 58.416V78H59.8429V42.544H68.8029V46.96C69.9976 45.424 71.5123 44.2293 73.3469 43.376C75.2243 42.48 77.2723 42.032 79.4909 42.032ZM99.8514 60.144C99.8514 56.56 100.555 53.3813 101.963 50.608C103.414 47.8347 105.377 45.7013 107.851 44.208C110.326 42.7147 113.078 41.968 116.107 41.968C118.411 41.968 120.609 42.48 122.699 43.504C124.79 44.4853 126.454 45.808 127.691 47.472V30.64H136.779V78H127.691V72.752C126.582 74.5013 125.025 75.9093 123.019 76.976C121.014 78.0427 118.689 78.576 116.043 78.576C113.057 78.576 110.326 77.808 107.851 76.272C105.377 74.736 103.414 72.5813 101.963 69.808C100.555 66.992 99.8514 63.7707 99.8514 60.144ZM127.755 60.272C127.755 58.096 127.329 56.24 126.475 54.704C125.622 53.1253 124.47 51.9307 123.019 51.12C121.569 50.2667 120.011 49.84 118.347 49.84C116.683 49.84 115.147 50.2453 113.739 51.056C112.331 51.8667 111.179 53.0613 110.283 54.64C109.43 56.176 109.003 58.0107 109.003 60.144C109.003 62.2773 109.43 64.1547 110.283 65.776C111.179 67.3547 112.331 68.5707 113.739 69.424C115.19 70.2773 116.726 70.704 118.347 70.704C120.011 70.704 121.569 70.2987 123.019 69.488C124.47 68.6347 125.622 67.44 126.475 65.904C127.329 64.3253 127.755 62.448 127.755 60.272ZM171.212 49.904V67.056C171.212 68.2507 171.49 69.1253 172.044 69.68C172.642 70.192 173.623 70.448 174.988 70.448H179.148V78H173.516C165.964 78 162.188 74.3307 162.188 66.992V49.904H157.964V42.544H162.188V33.776H171.212V42.544H179.148V49.904H171.212ZM205.561 42.032C208.249 42.032 210.638 42.6293 212.729 43.824C214.82 44.976 216.441 46.704 217.593 49.008C218.788 51.2693 219.385 54 219.385 57.2V78H210.425V58.416C210.425 55.6 209.721 53.4453 208.313 51.952C206.905 50.416 204.985 49.648 202.553 49.648C200.078 49.648 198.116 50.416 196.665 51.952C195.257 53.4453 194.553 55.6 194.553 58.416V78H185.593V30.64H194.553V46.96C195.705 45.424 197.241 44.2293 199.161 43.376C201.081 42.48 203.214 42.032 205.561 42.032ZM260.865 59.504C260.865 60.784 260.78 61.936 260.609 62.96H234.689C234.903 65.52 235.799 67.5253 237.377 68.976C238.956 70.4267 240.897 71.152 243.201 71.152C246.529 71.152 248.897 69.7227 250.305 66.864H259.969C258.945 70.2773 256.983 73.0933 254.081 75.312C251.18 77.488 247.617 78.576 243.393 78.576C239.98 78.576 236.908 77.8293 234.177 76.336C231.489 74.8 229.377 72.6453 227.841 69.872C226.348 67.0987 225.601 63.8987 225.601 60.272C225.601 56.6027 226.348 53.3813 227.841 50.608C229.335 47.8347 231.425 45.7013 234.113 44.208C236.801 42.7147 239.895 41.968 243.393 41.968C246.764 41.968 249.772 42.6933 252.417 44.144C255.105 45.5947 257.175 47.664 258.625 50.352C260.119 52.9973 260.865 56.048 260.865 59.504ZM251.585 56.944C251.543 54.64 250.711 52.8053 249.089 51.44C247.468 50.032 245.484 49.328 243.137 49.328C240.919 49.328 239.041 50.0107 237.505 51.376C236.012 52.6987 235.095 54.5547 234.753 56.944H251.585ZM302.623 42.032C305.311 42.032 307.701 42.6293 309.791 43.824C311.882 44.976 313.503 46.704 314.655 49.008C315.85 51.2693 316.447 54 316.447 57.2V78H307.487V58.416C307.487 55.6 306.783 53.4453 305.375 51.952C303.967 50.416 302.047 49.648 299.615 49.648C297.141 49.648 295.178 50.416 293.727 51.952C292.319 53.4453 291.615 55.6 291.615 58.416V78H282.655V30.64H291.615V46.96C292.767 45.424 294.303 44.2293 296.223 43.376C298.143 42.48 300.277 42.032 302.623 42.032ZM357.928 59.504C357.928 60.784 357.843 61.936 357.672 62.96H331.752C331.965 65.52 332.861 67.5253 334.44 68.976C336.019 70.4267 337.96 71.152 340.264 71.152C343.592 71.152 345.96 69.7227 347.368 66.864H357.032C356.008 70.2773 354.045 73.0933 351.144 75.312C348.243 77.488 344.68 78.576 340.456 78.576C337.043 78.576 333.971 77.8293 331.24 76.336C328.552 74.8 326.44 72.6453 324.904 69.872C323.411 67.0987 322.664 63.8987 322.664 60.272C322.664 56.6027 323.411 53.3813 324.904 50.608C326.397 47.8347 328.488 45.7013 331.176 44.208C333.864 42.7147 336.957 41.968 340.456 41.968C343.827 41.968 346.835 42.6933 349.48 44.144C352.168 45.5947 354.237 47.664 355.688 50.352C357.181 52.9973 357.928 56.048 357.928 59.504ZM348.648 56.944C348.605 54.64 347.773 52.8053 346.152 51.44C344.531 50.032 342.547 49.328 340.2 49.328C337.981 49.328 336.104 50.0107 334.568 51.376C333.075 52.6987 332.157 54.5547 331.816 56.944H348.648ZM373.428 48.048C374.58 46.1707 376.073 44.6987 377.908 43.632C379.785 42.5653 381.919 42.032 384.308 42.032V51.44H381.94C379.124 51.44 376.991 52.1013 375.54 53.424C374.132 54.7467 373.428 57.0507 373.428 60.336V78H364.468V42.544H373.428V48.048ZM399.303 47.728C400.455 46.0213 402.034 44.6347 404.039 43.568C406.087 42.5013 408.412 41.968 411.015 41.968C414.044 41.968 416.775 42.7147 419.207 44.208C421.682 45.7013 423.623 47.8347 425.031 50.608C426.482 53.3387 427.207 56.5173 427.207 60.144C427.207 63.7707 426.482 66.992 425.031 69.808C423.623 72.5813 421.682 74.736 419.207 76.272C416.775 77.808 414.044 78.576 411.015 78.576C408.37 78.576 406.044 78.064 404.039 77.04C402.076 75.9733 400.498 74.608 399.303 72.944V78H390.343V30.64H399.303V47.728ZM418.055 60.144C418.055 58.0107 417.607 56.176 416.711 54.64C415.858 53.0613 414.706 51.8667 413.255 51.056C411.847 50.2453 410.311 49.84 408.647 49.84C407.026 49.84 405.49 50.2667 404.039 51.12C402.631 51.9307 401.479 53.1253 400.583 54.704C399.73 56.2827 399.303 58.1387 399.303 60.272C399.303 62.4053 399.73 64.2613 400.583 65.84C401.479 67.4187 402.631 68.6347 404.039 69.488C405.49 70.2987 407.026 70.704 408.647 70.704C410.311 70.704 411.847 70.2773 413.255 69.424C414.706 68.5707 415.858 67.3547 416.711 65.776C417.607 64.1973 418.055 62.32 418.055 60.144ZM447.286 78.576C444.385 78.576 441.782 78.064 439.478 77.04C437.174 75.9733 435.339 74.544 433.974 72.752C432.651 70.96 431.926 68.976 431.798 66.8H440.822C440.993 68.1653 441.654 69.296 442.806 70.192C444.001 71.088 445.473 71.536 447.222 71.536C448.929 71.536 450.251 71.1947 451.19 70.512C452.171 69.8293 452.662 68.9547 452.662 67.888C452.662 66.736 452.065 65.8827 450.87 65.328C449.718 64.7307 447.862 64.0907 445.302 63.408C442.657 62.768 440.481 62.1067 438.774 61.424C437.11 60.7413 435.659 59.696 434.422 58.288C433.227 56.88 432.63 54.9813 432.63 52.592C432.63 50.6293 433.185 48.8373 434.294 47.216C435.446 45.5947 437.067 44.3147 439.158 43.376C441.291 42.4373 443.787 41.968 446.646 41.968C450.87 41.968 454.241 43.0347 456.758 45.168C459.275 47.2587 460.662 50.096 460.918 53.68H452.342C452.214 52.272 451.617 51.1627 450.55 50.352C449.526 49.4987 448.139 49.072 446.39 49.072C444.769 49.072 443.51 49.3707 442.614 49.968C441.761 50.5653 441.334 51.3973 441.334 52.464C441.334 53.6587 441.931 54.576 443.126 55.216C444.321 55.8133 446.177 56.432 448.694 57.072C451.254 57.712 453.366 58.3733 455.03 59.056C456.694 59.7387 458.123 60.8053 459.318 62.256C460.555 63.664 461.195 65.5413 461.238 67.888C461.238 69.936 460.662 71.7707 459.51 73.392C458.401 75.0133 456.779 76.2933 454.646 77.232C452.555 78.128 450.102 78.576 447.286 78.576ZM42.0129 138.544L20.0609 190.768H10.5249L18.2049 173.104L3.99694 138.544H14.0449L23.1969 163.312L32.4769 138.544H42.0129ZM62.5869 174.576C59.1736 174.576 56.1016 173.829 53.3709 172.336C50.6403 170.8 48.4856 168.645 46.9069 165.872C45.3709 163.099 44.6029 159.899 44.6029 156.272C44.6029 152.645 45.3923 149.445 46.9709 146.672C48.5923 143.899 50.7896 141.765 53.5629 140.272C56.3363 138.736 59.4296 137.968 62.8429 137.968C66.2563 137.968 69.3496 138.736 72.1229 140.272C74.8963 141.765 77.0723 143.899 78.6509 146.672C80.2723 149.445 81.0829 152.645 81.0829 156.272C81.0829 159.899 80.2509 163.099 78.5869 165.872C76.9656 168.645 74.7469 170.8 71.9309 172.336C69.1576 173.829 66.0429 174.576 62.5869 174.576ZM62.5869 166.768C64.2083 166.768 65.7229 166.384 67.1309 165.616C68.5816 164.805 69.7336 163.611 70.5869 162.032C71.4403 160.453 71.8669 158.533 71.8669 156.272C71.8669 152.901 70.9709 150.32 69.1789 148.528C67.4296 146.693 65.2749 145.776 62.7149 145.776C60.1549 145.776 58.0003 146.693 56.2509 148.528C54.5443 150.32 53.6909 152.901 53.6909 156.272C53.6909 159.643 54.5229 162.245 56.1869 164.08C57.8936 165.872 60.0269 166.768 62.5869 166.768ZM121.127 138.544V174H112.103V169.52C110.951 171.056 109.437 172.272 107.559 173.168C105.725 174.021 103.719 174.448 101.543 174.448C98.7701 174.448 96.3168 173.872 94.1834 172.72C92.0501 171.525 90.3648 169.797 89.1274 167.536C87.9328 165.232 87.3354 162.501 87.3354 159.344V138.544H96.2954V158.064C96.2954 160.88 96.9994 163.056 98.4074 164.592C99.8154 166.085 101.735 166.832 104.167 166.832C106.642 166.832 108.583 166.085 109.991 164.592C111.399 163.056 112.103 160.88 112.103 158.064V138.544H121.127ZM164.866 138.032C169.09 138.032 172.503 139.376 175.106 142.064C177.709 144.709 179.01 148.421 179.01 153.2V174H170.05V154.416C170.05 151.6 169.346 149.445 167.938 147.952C166.53 146.416 164.61 145.648 162.178 145.648C159.703 145.648 157.741 146.416 156.29 147.952C154.882 149.445 154.178 151.6 154.178 154.416V174H145.218V138.544H154.178V142.96C155.373 141.424 156.887 140.229 158.722 139.376C160.599 138.48 162.647 138.032 164.866 138.032ZM220.49 155.504C220.49 156.784 220.405 157.936 220.234 158.96H194.314C194.528 161.52 195.424 163.525 197.002 164.976C198.581 166.427 200.522 167.152 202.826 167.152C206.154 167.152 208.522 165.723 209.93 162.864H219.594C218.57 166.277 216.608 169.093 213.706 171.312C210.805 173.488 207.242 174.576 203.018 174.576C199.605 174.576 196.533 173.829 193.802 172.336C191.114 170.8 189.002 168.645 187.466 165.872C185.973 163.099 185.226 159.899 185.226 156.272C185.226 152.603 185.973 149.381 187.466 146.608C188.96 143.835 191.05 141.701 193.738 140.208C196.426 138.715 199.52 137.968 203.018 137.968C206.389 137.968 209.397 138.693 212.042 140.144C214.73 141.595 216.8 143.664 218.25 146.352C219.744 148.997 220.49 152.048 220.49 155.504ZM211.21 152.944C211.168 150.64 210.336 148.805 208.714 147.44C207.093 146.032 205.109 145.328 202.762 145.328C200.544 145.328 198.666 146.011 197.13 147.376C195.637 148.699 194.72 150.555 194.378 152.944H211.21ZM259.99 155.504C259.99 156.784 259.905 157.936 259.734 158.96H233.814C234.028 161.52 234.924 163.525 236.502 164.976C238.081 166.427 240.022 167.152 242.326 167.152C245.654 167.152 248.022 165.723 249.43 162.864H259.094C258.07 166.277 256.108 169.093 253.206 171.312C250.305 173.488 246.742 174.576 242.518 174.576C239.105 174.576 236.033 173.829 233.302 172.336C230.614 170.8 228.502 168.645 226.966 165.872C225.473 163.099 224.726 159.899 224.726 156.272C224.726 152.603 225.473 149.381 226.966 146.608C228.46 143.835 230.55 141.701 233.238 140.208C235.926 138.715 239.02 137.968 242.518 137.968C245.889 137.968 248.897 138.693 251.542 140.144C254.23 141.595 256.3 143.664 257.75 146.352C259.244 148.997 259.99 152.048 259.99 155.504ZM250.71 152.944C250.668 150.64 249.836 148.805 248.214 147.44C246.593 146.032 244.609 145.328 242.262 145.328C240.044 145.328 238.166 146.011 236.63 147.376C235.137 148.699 234.22 150.555 233.878 152.944H250.71ZM264.226 156.144C264.226 152.56 264.93 149.381 266.338 146.608C267.789 143.835 269.752 141.701 272.226 140.208C274.701 138.715 277.453 137.968 280.482 137.968C282.786 137.968 284.984 138.48 287.074 139.504C289.165 140.485 290.829 141.808 292.066 143.472V126.64H301.154V174H292.066V168.752C290.957 170.501 289.4 171.909 287.394 172.976C285.389 174.043 283.064 174.576 280.418 174.576C277.432 174.576 274.701 173.808 272.226 172.272C269.752 170.736 267.789 168.581 266.338 165.808C264.93 162.992 264.226 159.771 264.226 156.144ZM292.13 156.272C292.13 154.096 291.704 152.24 290.85 150.704C289.997 149.125 288.845 147.931 287.394 147.12C285.944 146.267 284.386 145.84 282.722 145.84C281.058 145.84 279.522 146.245 278.114 147.056C276.706 147.867 275.554 149.061 274.658 150.64C273.805 152.176 273.378 154.011 273.378 156.144C273.378 158.277 273.805 160.155 274.658 161.776C275.554 163.355 276.706 164.571 278.114 165.424C279.565 166.277 281.101 166.704 282.722 166.704C284.386 166.704 285.944 166.299 287.394 165.488C288.845 164.635 289.997 163.44 290.85 161.904C291.704 160.325 292.13 158.448 292.13 156.272Z" fill="#0B0A0A"/>
<path d="M32 29.328V36.56H13.376V48.016H27.648V55.12H13.376V74H4.416V29.328H32ZM42.8975 34.32C41.3188 34.32 39.9962 33.8293 38.9295 32.848C37.9055 31.824 37.3935 30.5653 37.3935 29.072C37.3935 27.5787 37.9055 26.3413 38.9295 25.36C39.9962 24.336 41.3188 23.824 42.8975 23.824C44.4762 23.824 45.7775 24.336 46.8015 25.36C47.8682 26.3413 48.4015 27.5787 48.4015 29.072C48.4015 30.5653 47.8682 31.824 46.8015 32.848C45.7775 33.8293 44.4762 34.32 42.8975 34.32ZM47.3135 38.544V74H38.3535V38.544H47.3135ZM75.814 38.032C80.038 38.032 83.4513 39.376 86.054 42.064C88.6567 44.7093 89.958 48.4213 89.958 53.2V74H80.998V54.416C80.998 51.6 80.294 49.4453 78.886 47.952C77.478 46.416 75.558 45.648 73.126 45.648C70.6513 45.648 68.6887 46.416 67.238 47.952C65.83 49.4453 65.126 51.6 65.126 54.416V74H56.166V38.544H65.126V42.96C66.3207 41.424 67.8353 40.2293 69.67 39.376C71.5473 38.48 73.5953 38.032 75.814 38.032ZM96.1745 56.144C96.1745 52.56 96.8785 49.3813 98.2865 46.608C99.7372 43.8347 101.7 41.7013 104.175 40.208C106.649 38.7147 109.401 37.968 112.431 37.968C114.735 37.968 116.932 38.48 119.023 39.504C121.113 40.4853 122.777 41.808 124.015 43.472V26.64H133.103V74H124.015V68.752C122.905 70.5013 121.348 71.9093 119.343 72.976C117.337 74.0427 115.012 74.576 112.367 74.576C109.38 74.576 106.649 73.808 104.175 72.272C101.7 70.736 99.7372 68.5813 98.2865 65.808C96.8785 62.992 96.1745 59.7707 96.1745 56.144ZM124.079 56.272C124.079 54.096 123.652 52.24 122.799 50.704C121.945 49.1253 120.793 47.9307 119.343 47.12C117.892 46.2667 116.335 45.84 114.671 45.84C113.007 45.84 111.471 46.2453 110.062 47.056C108.655 47.8667 107.503 49.0613 106.607 50.64C105.753 52.176 105.327 54.0107 105.327 56.144C105.327 58.2773 105.753 60.1547 106.607 61.776C107.503 63.3547 108.655 64.5707 110.062 65.424C111.513 66.2773 113.049 66.704 114.671 66.704C116.335 66.704 117.892 66.2987 119.343 65.488C120.793 64.6347 121.945 63.44 122.799 61.904C123.652 60.3253 124.079 58.448 124.079 56.272ZM167.536 45.904V63.056C167.536 64.2507 167.813 65.1253 168.368 65.68C168.965 66.192 169.946 66.448 171.312 66.448H175.472V74H169.84C162.288 74 158.512 70.3307 158.512 62.992V45.904H154.288V38.544H158.512V29.776H167.536V38.544H175.472V45.904H167.536ZM201.884 38.032C204.572 38.032 206.961 38.6293 209.052 39.824C211.143 40.976 212.764 42.704 213.916 45.008C215.111 47.2693 215.708 50 215.708 53.2V74H206.748V54.416C206.748 51.6 206.044 49.4453 204.636 47.952C203.228 46.416 201.308 45.648 198.876 45.648C196.401 45.648 194.439 46.416 192.988 47.952C191.58 49.4453 190.876 51.6 190.876 54.416V74H181.916V26.64H190.876V42.96C192.028 41.424 193.564 40.2293 195.484 39.376C197.404 38.48 199.537 38.032 201.884 38.032ZM257.189 55.504C257.189 56.784 257.103 57.936 256.933 58.96H231.013C231.226 61.52 232.122 63.5253 233.701 64.976C235.279 66.4267 237.221 67.152 239.525 67.152C242.853 67.152 245.221 65.7227 246.629 62.864H256.293C255.269 66.2773 253.306 69.0933 250.405 71.312C247.503 73.488 243.941 74.576 239.717 74.576C236.303 74.576 233.231 73.8293 230.501 72.336C227.813 70.8 225.701 68.6453 224.165 65.872C222.671 63.0987 221.924 59.8987 221.924 56.272C221.924 52.6027 222.671 49.3813 224.165 46.608C225.658 43.8347 227.749 41.7013 230.437 40.208C233.125 38.7147 236.218 37.968 239.717 37.968C243.087 37.968 246.095 38.6933 248.741 40.144C251.429 41.5947 253.498 43.664 254.949 46.352C256.442 48.9973 257.189 52.048 257.189 55.504ZM247.909 52.944C247.866 50.64 247.034 48.8053 245.413 47.44C243.791 46.032 241.807 45.328 239.461 45.328C237.242 45.328 235.365 46.0107 233.829 47.376C232.335 48.6987 231.418 50.5547 231.077 52.944H247.909ZM298.947 38.032C301.635 38.032 304.024 38.6293 306.115 39.824C308.205 40.976 309.827 42.704 310.979 45.008C312.173 47.2693 312.771 50 312.771 53.2V74H303.811V54.416C303.811 51.6 303.107 49.4453 301.699 47.952C300.291 46.416 298.371 45.648 295.939 45.648C293.464 45.648 291.501 46.416 290.051 47.952C288.643 49.4453 287.939 51.6 287.939 54.416V74H278.979V26.64H287.939V42.96C289.091 41.424 290.627 40.2293 292.547 39.376C294.467 38.48 296.6 38.032 298.947 38.032ZM354.251 55.504C354.251 56.784 354.166 57.936 353.995 58.96H328.075C328.288 61.52 329.184 63.5253 330.763 64.976C332.342 66.4267 334.283 67.152 336.587 67.152C339.915 67.152 342.283 65.7227 343.691 62.864H353.355C352.331 66.2773 350.368 69.0933 347.467 71.312C344.566 73.488 341.003 74.576 336.779 74.576C333.366 74.576 330.294 73.8293 327.563 72.336C324.875 70.8 322.763 68.6453 321.227 65.872C319.734 63.0987 318.987 59.8987 318.987 56.272C318.987 52.6027 319.734 49.3813 321.227 46.608C322.72 43.8347 324.811 41.7013 327.499 40.208C330.187 38.7147 333.28 37.968 336.779 37.968C340.15 37.968 343.158 38.6933 345.803 40.144C348.491 41.5947 350.56 43.664 352.011 46.352C353.504 48.9973 354.251 52.048 354.251 55.504ZM344.971 52.944C344.928 50.64 344.096 48.8053 342.475 47.44C340.854 46.032 338.87 45.328 336.523 45.328C334.304 45.328 332.427 46.0107 330.891 47.376C329.398 48.6987 328.48 50.5547 328.139 52.944H344.971ZM369.751 44.048C370.903 42.1707 372.396 40.6987 374.231 39.632C376.108 38.5653 378.242 38.032 380.631 38.032V47.44H378.263C375.447 47.44 373.314 48.1013 371.863 49.424C370.455 50.7467 369.751 53.0507 369.751 56.336V74H360.791V38.544H369.751V44.048ZM395.626 43.728C396.778 42.0213 398.357 40.6347 400.362 39.568C402.41 38.5013 404.735 37.968 407.338 37.968C410.367 37.968 413.098 38.7147 415.53 40.208C418.005 41.7013 419.946 43.8347 421.354 46.608C422.805 49.3387 423.53 52.5173 423.53 56.144C423.53 59.7707 422.805 62.992 421.354 65.808C419.946 68.5813 418.005 70.736 415.53 72.272C413.098 73.808 410.367 74.576 407.338 74.576C404.693 74.576 402.367 74.064 400.362 73.04C398.399 71.9733 396.821 70.608 395.626 68.944V74H386.666V26.64H395.626V43.728ZM414.378 56.144C414.378 54.0107 413.93 52.176 413.034 50.64C412.181 49.0613 411.029 47.8667 409.578 47.056C408.17 46.2453 406.634 45.84 404.97 45.84C403.349 45.84 401.813 46.2667 400.362 47.12C398.954 47.9307 397.802 49.1253 396.906 50.704C396.053 52.2827 395.626 54.1387 395.626 56.272C395.626 58.4053 396.053 60.2613 396.906 61.84C397.802 63.4187 398.954 64.6347 400.362 65.488C401.813 66.2987 403.349 66.704 404.97 66.704C406.634 66.704 408.17 66.2773 409.578 65.424C411.029 64.5707 412.181 63.3547 413.034 61.776C413.93 60.1973 414.378 58.32 414.378 56.144ZM443.609 74.576C440.708 74.576 438.105 74.064 435.801 73.04C433.497 71.9733 431.662 70.544 430.297 68.752C428.974 66.96 428.249 64.976 428.121 62.8H437.145C437.316 64.1653 437.977 65.296 439.129 66.192C440.324 67.088 441.796 67.536 443.545 67.536C445.252 67.536 446.574 67.1947 447.513 66.512C448.494 65.8293 448.985 64.9547 448.985 63.888C448.985 62.736 448.388 61.8827 447.193 61.328C446.041 60.7307 444.185 60.0907 441.625 59.408C438.98 58.768 436.804 58.1067 435.097 57.424C433.433 56.7413 431.982 55.696 430.745 54.288C429.55 52.88 428.953 50.9813 428.953 48.592C428.953 46.6293 429.508 44.8373 430.617 43.216C431.769 41.5947 433.39 40.3147 435.481 39.376C437.614 38.4373 440.11 37.968 442.969 37.968C447.193 37.968 450.564 39.0347 453.081 41.168C455.598 43.2587 456.985 46.096 457.241 49.68H448.665C448.537 48.272 447.94 47.1627 446.873 46.352C445.849 45.4987 444.462 45.072 442.713 45.072C441.092 45.072 439.833 45.3707 438.937 45.968C438.084 46.5653 437.657 47.3973 437.657 48.464C437.657 49.6587 438.254 50.576 439.449 51.216C440.644 51.8133 442.5 52.432 445.017 53.072C447.577 53.712 449.689 54.3733 451.353 55.056C453.017 55.7387 454.446 56.8053 455.641 58.256C456.878 59.664 457.518 61.5413 457.561 63.888C457.561 65.936 456.985 67.7707 455.833 69.392C454.724 71.0133 453.102 72.2933 450.969 73.232C448.878 74.128 446.425 74.576 443.609 74.576ZM38.336 134.544L16.384 186.768H6.848L14.528 169.104L0.32 134.544H10.368L19.52 159.312L28.8 134.544H38.336ZM58.91 170.576C55.4967 170.576 52.4247 169.829 49.694 168.336C46.9633 166.8 44.8087 164.645 43.23 161.872C41.694 159.099 40.926 155.899 40.926 152.272C40.926 148.645 41.7153 145.445 43.294 142.672C44.9153 139.899 47.1127 137.765 49.886 136.272C52.6593 134.736 55.7527 133.968 59.166 133.968C62.5793 133.968 65.6727 134.736 68.446 136.272C71.2193 137.765 73.3953 139.899 74.974 142.672C76.5953 145.445 77.406 148.645 77.406 152.272C77.406 155.899 76.574 159.099 74.91 161.872C73.2887 164.645 71.07 166.8 68.254 168.336C65.4807 169.829 62.366 170.576 58.91 170.576ZM58.91 162.768C60.5313 162.768 62.046 162.384 63.454 161.616C64.9047 160.805 66.0567 159.611 66.91 158.032C67.7633 156.453 68.19 154.533 68.19 152.272C68.19 148.901 67.294 146.32 65.502 144.528C63.7527 142.693 61.598 141.776 59.038 141.776C56.478 141.776 54.3233 142.693 52.574 144.528C50.8673 146.32 50.014 148.901 50.014 152.272C50.014 155.643 50.846 158.245 52.51 160.08C54.2167 161.872 56.35 162.768 58.91 162.768ZM117.451 134.544V170H108.427V165.52C107.275 167.056 105.76 168.272 103.883 169.168C102.048 170.021 100.043 170.448 97.8665 170.448C95.0932 170.448 92.6398 169.872 90.5065 168.72C88.3732 167.525 86.6878 165.797 85.4505 163.536C84.2558 161.232 83.6585 158.501 83.6585 155.344V134.544H92.6185V154.064C92.6185 156.88 93.3225 159.056 94.7305 160.592C96.1385 162.085 98.0585 162.832 100.491 162.832C102.965 162.832 104.907 162.085 106.315 160.592C107.723 159.056 108.427 156.88 108.427 154.064V134.544H117.451ZM161.189 134.032C165.413 134.032 168.826 135.376 171.429 138.064C174.032 140.709 175.333 144.421 175.333 149.2V170H166.373V150.416C166.373 147.6 165.669 145.445 164.261 143.952C162.853 142.416 160.933 141.648 158.501 141.648C156.026 141.648 154.064 142.416 152.613 143.952C151.205 145.445 150.501 147.6 150.501 150.416V170H141.541V134.544H150.501V138.96C151.696 137.424 153.21 136.229 155.045 135.376C156.922 134.48 158.97 134.032 161.189 134.032ZM216.814 151.504C216.814 152.784 216.728 153.936 216.558 154.96H190.638C190.851 157.52 191.747 159.525 193.326 160.976C194.904 162.427 196.846 163.152 199.15 163.152C202.478 163.152 204.846 161.723 206.254 158.864H215.918C214.894 162.277 212.931 165.093 210.03 167.312C207.128 169.488 203.566 170.576 199.342 170.576C195.928 170.576 192.856 169.829 190.126 168.336C187.438 166.8 185.326 164.645 183.79 161.872C182.296 159.099 181.549 155.899 181.549 152.272C181.549 148.603 182.296 145.381 183.79 142.608C185.283 139.835 187.374 137.701 190.062 136.208C192.75 134.715 195.843 133.968 199.342 133.968C202.712 133.968 205.72 134.693 208.366 136.144C211.054 137.595 213.123 139.664 214.574 142.352C216.067 144.997 216.814 148.048 216.814 151.504ZM207.534 148.944C207.491 146.64 206.659 144.805 205.038 143.44C203.416 142.032 201.432 141.328 199.086 141.328C196.867 141.328 194.99 142.011 193.454 143.376C191.96 144.699 191.043 146.555 190.702 148.944H207.534ZM256.314 151.504C256.314 152.784 256.228 153.936 256.058 154.96H230.138C230.351 157.52 231.247 159.525 232.826 160.976C234.404 162.427 236.346 163.152 238.65 163.152C241.978 163.152 244.346 161.723 245.754 158.864H255.418C254.394 162.277 252.431 165.093 249.53 167.312C246.628 169.488 243.066 170.576 238.842 170.576C235.428 170.576 232.356 169.829 229.626 168.336C226.938 166.8 224.826 164.645 223.29 161.872C221.796 159.099 221.049 155.899 221.049 152.272C221.049 148.603 221.796 145.381 223.29 142.608C224.783 139.835 226.874 137.701 229.562 136.208C232.25 134.715 235.343 133.968 238.842 133.968C242.212 133.968 245.22 134.693 247.866 136.144C250.554 137.595 252.623 139.664 254.074 142.352C255.567 144.997 256.314 148.048 256.314 151.504ZM247.034 148.944C246.991 146.64 246.159 144.805 244.538 143.44C242.916 142.032 240.932 141.328 238.586 141.328C236.367 141.328 234.49 142.011 232.954 143.376C231.46 144.699 230.543 146.555 230.202 148.944H247.034ZM260.549 152.144C260.549 148.56 261.253 145.381 262.661 142.608C264.112 139.835 266.075 137.701 268.55 136.208C271.024 134.715 273.776 133.968 276.806 133.968C279.11 133.968 281.307 134.48 283.398 135.504C285.488 136.485 287.152 137.808 288.39 139.472V122.64H297.478V170H288.39V164.752C287.28 166.501 285.723 167.909 283.718 168.976C281.712 170.043 279.387 170.576 276.742 170.576C273.755 170.576 271.024 169.808 268.55 168.272C266.075 166.736 264.112 164.581 262.661 161.808C261.253 158.992 260.549 155.771 260.549 152.144ZM288.454 152.272C288.454 150.096 288.027 148.24 287.174 146.704C286.32 145.125 285.168 143.931 283.718 143.12C282.267 142.267 280.71 141.84 279.046 141.84C277.382 141.84 275.846 142.245 274.438 143.056C273.03 143.867 271.878 145.061 270.982 146.64C270.128 148.176 269.702 150.011 269.702 152.144C269.702 154.277 270.128 156.155 270.982 157.776C271.878 159.355 273.03 160.571 274.438 161.424C275.888 162.277 277.424 162.704 279.046 162.704C280.71 162.704 282.267 162.299 283.718 161.488C285.168 160.635 286.32 159.44 287.174 157.904C288.027 156.325 288.454 154.448 288.454 152.272Z" fill="#FFD28F"/>
</svg>
