<svg width="25" height="25" viewBox="0 0 25 25" fill="none" xmlns="http://www.w3.org/2000/svg">
<g clip-path="url(#clip0_9_15)">
<path d="M23.0853 5.89074C22.2901 6.2425 21.4468 6.47352 20.5833 6.57615C21.4934 6.03181 22.1746 5.17513 22.4999 4.16574C21.6458 4.67407 20.7093 5.03032 19.7333 5.22303C19.0776 4.52155 18.2086 4.05632 17.2613 3.89968C16.314 3.74303 15.3415 3.90375 14.495 4.35683C13.6485 4.80992 12.9753 5.52999 12.5802 6.4051C12.1852 7.28022 12.0903 8.26134 12.3103 9.19594C10.5782 9.10913 8.8836 8.65899 7.33667 7.87476C5.78975 7.09053 4.42505 5.98974 3.33117 4.64386C2.94397 5.30891 2.7405 6.06493 2.74158 6.83449C2.74158 8.3449 3.51033 9.67928 4.67908 10.4605C3.98743 10.4388 3.31099 10.252 2.70617 9.91574V9.9699C2.70638 10.9758 3.05447 11.9508 3.69143 12.7293C4.32838 13.5079 5.215 14.0423 6.20096 14.2418C5.55889 14.4158 4.88565 14.4414 4.23221 14.3168C4.5102 15.1826 5.05201 15.9399 5.78178 16.4825C6.51156 17.0251 7.39276 17.3259 8.302 17.3428C7.39833 18.0525 6.36364 18.5772 5.25708 18.8867C4.15053 19.1963 2.9938 19.2848 1.85304 19.147C3.84439 20.4276 6.16252 21.1075 8.53013 21.1053C16.5437 21.1053 20.926 14.4668 20.926 8.70949C20.926 8.52199 20.9208 8.3324 20.9124 8.14699C21.7654 7.53049 22.5016 6.7668 23.0864 5.89178L23.0853 5.89074Z" fill="#FFD28F"/>
</g>
<defs>
<clipPath id="clip0_9_15">
<rect width="25" height="25" fill="white"/>
</clipPath>
</defs>
</svg>
